<?xml version="1.0" encoding="UTF-8" standalone="no" ?>
<!DOCTYPE svg PUBLIC "-//W3C//DTD SVG 1.1//EN" "http://www.w3.org/Graphics/SVG/1.1/DTD/svg11.dtd">
<svg xmlns="http://www.w3.org/2000/svg" xmlns:xlink="http://www.w3.org/1999/xlink" version="1.1" width="500" height="500" viewBox="0 0 500 500" xml:space="preserve">
<!-- Created with SVG Stack Editor - https://svgstack.com -->
<defs>
</defs>
<rect x="0" y="0" width="100%" height="100%" fill="transparent"></rect>
<g transform="matrix(4.89 0 0 4.89 250 250)"  >
<g style=""   >
		<g transform="matrix(1 0 0 1 0 0)" id="path_0"  >
<path style="stroke: rgb(255,255,255); stroke-width: 2.2865; stroke-dasharray: none; stroke-linecap: butt; stroke-dashoffset: 0; stroke-linejoin: round; stroke-miterlimit: 10; fill: none; fill-rule: evenodd; opacity: 1;"  transform=" translate(-51.51, -52)" d="M 26.7016 102 L 2 2.00049 L 101.023 30.5097 L 26.7016 102 Z" stroke-linecap="round" />
</g>
		<g transform="matrix(1 0 0 1 -12.42 -10.73)" id="path_1"  >
<path style="stroke: rgb(255,255,255); stroke-width: 2.2865; stroke-dasharray: none; stroke-linecap: butt; stroke-dashoffset: 0; stroke-linejoin: round; stroke-miterlimit: 10; fill: none; fill-rule: evenodd; opacity: 1;"  transform=" translate(-39.09, -41.27)" d="M 51.4929 16.2579 L 63.8349 66.2728 L 14.3511 52.0136 L 51.4929 16.2579 Z" stroke-linecap="round" />
</g>
		<g transform="matrix(1 0 0 1 -6.13 -5.63)" id="path_2"  >
<path style="stroke: rgb(255,255,255); stroke-width: 2.2865; stroke-dasharray: none; stroke-linecap: butt; stroke-dashoffset: 0; stroke-linejoin: round; stroke-miterlimit: 10; fill: none; fill-rule: evenodd; opacity: 1;"  transform=" translate(-45.38, -46.37)" d="M 39.2145 58.7971 L 33.0844 33.9514 L 57.6688 41.0087 L 39.2145 58.7971 Z" stroke-linecap="round" />
</g>
		<g transform="matrix(1 0 0 1 -30.72 -30.44)" id="path_3"  >
<path style="stroke: rgb(255,255,255); stroke-width: 2.2865; stroke-dasharray: none; stroke-linecap: butt; stroke-dashoffset: 0; stroke-linejoin: round; stroke-miterlimit: 10; fill: none; fill-rule: evenodd; opacity: 1;"  transform=" translate(-20.79, -21.56)" d="M 26.952 9.13611 L 33.0821 33.9818 L 8.49768 26.9245 L 26.952 9.13611 Z" stroke-linecap="round" />
</g>
		<g transform="matrix(1 0 0 1 18.45 -16.28)" id="path_4"  >
<path style="stroke: rgb(255,255,255); stroke-width: 2.2865; stroke-dasharray: none; stroke-linecap: butt; stroke-dashoffset: 0; stroke-linejoin: round; stroke-miterlimit: 10; fill: none; fill-rule: evenodd; opacity: 1;"  transform=" translate(-69.96, -35.72)" d="M 76.1186 23.2992 L 82.2487 48.1449 L 57.6643 41.0876 L 76.1186 23.2992 Z" stroke-linecap="round" />
</g>
		<g transform="matrix(1 0 0 1 -18.46 19.24)" id="path_5"  >
<path style="stroke: rgb(255,255,255); stroke-width: 2.2865; stroke-dasharray: none; stroke-linecap: butt; stroke-dashoffset: 0; stroke-linejoin: round; stroke-miterlimit: 10; fill: none; fill-rule: evenodd; opacity: 1;"  transform=" translate(-33.06, -71.24)" d="M 39.2173 58.8142 L 45.3474 83.6599 L 20.7629 76.6026 L 39.2173 58.8142 Z" stroke-linecap="round" />
</g>
</g>
</g>
<g transform="matrix(4.89 0 0 4.89 250 250)"  >
<g style=""   >
		<g transform="matrix(1 0 0 1 0 0)" id="path_0"  >
<path style="stroke: rgb(255,255,255); stroke-width: 2.2865; stroke-dasharray: none; stroke-linecap: butt; stroke-dashoffset: 0; stroke-linejoin: round; stroke-miterlimit: 10; fill: none; fill-rule: evenodd; opacity: 1;"  transform=" translate(-51.51, -52)" d="M 26.7016 102 L 2 2.00049 L 101.023 30.5097 L 26.7016 102 Z" stroke-linecap="round" />
</g>
		<g transform="matrix(1 0 0 1 -12.42 -10.73)" id="path_1"  >
<path style="stroke: rgb(255,255,255); stroke-width: 2.2865; stroke-dasharray: none; stroke-linecap: butt; stroke-dashoffset: 0; stroke-linejoin: round; stroke-miterlimit: 10; fill: none; fill-rule: evenodd; opacity: 1;"  transform=" translate(-39.09, -41.27)" d="M 51.4929 16.2579 L 63.8349 66.2728 L 14.3511 52.0136 L 51.4929 16.2579 Z" stroke-linecap="round" />
</g>
		<g transform="matrix(1 0 0 1 -6.13 -5.63)" id="path_2"  >
<path style="stroke: rgb(255,255,255); stroke-width: 2.2865; stroke-dasharray: none; stroke-linecap: butt; stroke-dashoffset: 0; stroke-linejoin: round; stroke-miterlimit: 10; fill: none; fill-rule: evenodd; opacity: 1;"  transform=" translate(-45.38, -46.37)" d="M 39.2145 58.7971 L 33.0844 33.9514 L 57.6688 41.0087 L 39.2145 58.7971 Z" stroke-linecap="round" />
</g>
		<g transform="matrix(1 0 0 1 -30.72 -30.44)" id="path_3"  >
<path style="stroke: rgb(255,255,255); stroke-width: 2.2865; stroke-dasharray: none; stroke-linecap: butt; stroke-dashoffset: 0; stroke-linejoin: round; stroke-miterlimit: 10; fill: none; fill-rule: evenodd; opacity: 1;"  transform=" translate(-20.79, -21.56)" d="M 26.952 9.13611 L 33.0821 33.9818 L 8.49768 26.9245 L 26.952 9.13611 Z" stroke-linecap="round" />
</g>
		<g transform="matrix(1 0 0 1 18.45 -16.28)" id="path_4"  >
<path style="stroke: rgb(255,255,255); stroke-width: 2.2865; stroke-dasharray: none; stroke-linecap: butt; stroke-dashoffset: 0; stroke-linejoin: round; stroke-miterlimit: 10; fill: none; fill-rule: evenodd; opacity: 1;"  transform=" translate(-69.96, -35.72)" d="M 76.1186 23.2992 L 82.2487 48.1449 L 57.6643 41.0876 L 76.1186 23.2992 Z" stroke-linecap="round" />
</g>
		<g transform="matrix(1 0 0 1 -18.46 19.24)" id="path_5"  >
<path style="stroke: rgb(255,255,255); stroke-width: 2.2865; stroke-dasharray: none; stroke-linecap: butt; stroke-dashoffset: 0; stroke-linejoin: round; stroke-miterlimit: 10; fill: none; fill-rule: evenodd; opacity: 1;"  transform=" translate(-33.06, -71.24)" d="M 39.2173 58.8142 L 45.3474 83.6599 L 20.7629 76.6026 L 39.2173 58.8142 Z" stroke-linecap="round" />
</g>
</g>
</g>
</svg>